<svg width="24" height="24" viewBox="0 0 24 24" fill="none" xmlns="http://www.w3.org/2000/svg">
<g clip-path="url(#clip0_1685_6279)">
<path d="M12 24C18.6274 24 24 18.6274 24 12C24 5.37258 18.6274 0 12 0C5.37258 0 0 5.37258 0 12C0 18.6274 5.37258 24 12 24Z" fill="white"/>
<path d="M8.10219 9.4408C8.60973 8.9212 9.21602 8.50832 9.88543 8.22643C10.5548 7.94453 11.2738 7.79932 12.0002 7.79932C12.7265 7.79932 13.4455 7.94453 14.115 8.22643C14.7844 8.50832 15.3907 8.9212 15.8982 9.4408L16.1572 9.7048C16.2087 9.75781 16.2376 9.82885 16.2376 9.9028C16.2376 9.97675 16.2087 10.0478 16.1572 10.1008L15.2702 11.0008C15.2575 11.0137 15.2424 11.0239 15.2258 11.0309C15.2091 11.0379 15.1912 11.0415 15.1732 11.0415C15.1551 11.0415 15.1373 11.0379 15.1206 11.0309C15.1039 11.0239 15.0888 11.0137 15.0762 11.0008L14.7192 10.6388C14.3652 10.2764 13.9422 9.98839 13.4753 9.79177C13.0084 9.59514 12.5068 9.49386 12.0002 9.49386C11.4935 9.49386 10.992 9.59514 10.5251 9.79177C10.0581 9.98839 9.63522 10.2764 9.28119 10.6388L8.89919 11.0268C8.88652 11.0398 8.87136 11.0502 8.85461 11.0573C8.83786 11.0643 8.81987 11.068 8.80169 11.068C8.78351 11.068 8.76552 11.0643 8.74877 11.0573C8.73202 11.0502 8.71686 11.0398 8.70419 11.0268L7.81819 10.1268C7.7661 10.0739 7.7369 10.0026 7.7369 9.9283C7.7369 9.85403 7.7661 9.78273 7.81819 9.7298L8.10219 9.4408ZM17.7302 11.3038L18.5202 12.1058C18.572 12.1587 18.601 12.2298 18.601 12.3038C18.601 12.3778 18.572 12.4489 18.5202 12.5018L14.9632 16.1178C14.9378 16.1439 14.9075 16.1646 14.874 16.1787C14.8405 16.1929 14.8045 16.2002 14.7682 16.2002C14.7318 16.2002 14.6958 16.1929 14.6623 16.1787C14.6289 16.1646 14.5985 16.1439 14.5732 16.1178L12.0492 13.5518C12.0428 13.5452 12.0352 13.54 12.0268 13.5364C12.0184 13.5328 12.0093 13.5309 12.0002 13.5309C11.991 13.5309 11.982 13.5328 11.9736 13.5364C11.9651 13.54 11.9575 13.5452 11.9512 13.5518L9.42719 16.1178C9.40184 16.1439 9.37153 16.1646 9.33803 16.1787C9.30454 16.1929 9.26855 16.2002 9.23219 16.2002C9.19583 16.2002 9.15984 16.1929 9.12635 16.1787C9.09285 16.1646 9.06254 16.1439 9.03719 16.1178L5.48119 12.5018C5.4294 12.4489 5.40039 12.3778 5.40039 12.3038C5.40039 12.2298 5.4294 12.1587 5.48119 12.1058L6.26919 11.3038C6.29454 11.2777 6.32486 11.257 6.35835 11.2429C6.39184 11.2287 6.42783 11.2214 6.46419 11.2214C6.50055 11.2214 6.53654 11.2287 6.57003 11.2429C6.60353 11.257 6.63384 11.2777 6.65919 11.3038L9.18319 13.8698C9.21019 13.8978 9.25319 13.8978 9.28119 13.8698L11.8052 11.3038C11.8305 11.2777 11.8609 11.257 11.8943 11.2429C11.9278 11.2287 11.9638 11.2214 12.0002 11.2214C12.0365 11.2214 12.0725 11.2287 12.106 11.2429C12.1395 11.257 12.1698 11.2777 12.1952 11.3038L14.7192 13.8698C14.7462 13.8978 14.7892 13.8978 14.8162 13.8698L17.3412 11.3038C17.3665 11.2777 17.3969 11.257 17.4303 11.2429C17.4638 11.2287 17.4998 11.2214 17.5362 11.2214C17.5725 11.2214 17.6085 11.2287 17.642 11.2429C17.6755 11.257 17.7058 11.2777 17.7312 11.3038H17.7302Z" fill="#006FFF"/>
</g>
<defs>
<clipPath id="clip0_1685_6279">
<rect width="24" height="24" fill="white"/>
</clipPath>
</defs>
</svg>
