<svg width="24" height="24" viewBox="0 0 24 24" fill="none" xmlns="http://www.w3.org/2000/svg">
<g clip-path="url(#clip0_1685_6256)">
<path d="M12 24C18.6274 24 24 18.6274 24 12C24 5.37258 18.6274 0 12 0C5.37258 0 0 5.37258 0 12C0 18.6274 5.37258 24 12 24Z" fill="white"/>
<path d="M18.4868 5.3999L12.8618 9.5619L13.9078 7.1089L18.4878 5.3999H18.4868Z" fill="#E17726" stroke="#E17726" strokeWidth="0.3125" stroke-linecap="round" stroke-linejoin="round"/>
<path d="M5.51199 5.3999L11.088 9.6009L10.092 7.1089L5.51199 5.3999ZM16.462 15.0499L14.966 17.3369L18.171 18.2199L19.089 15.0999L16.462 15.0499ZM4.91699 15.0999L5.82899 18.2199L9.02899 17.3369L7.53699 15.0509L4.91699 15.0999Z" fill="#E27625" stroke="#E27625" strokeWidth="0.3125" stroke-linecap="round" stroke-linejoin="round"/>
<path d="M8.85582 11.1891L7.96582 12.5321L11.1368 12.6761L11.0318 9.26312L8.85582 11.1891ZM15.1428 11.1881L12.9338 9.22412L12.8618 12.6761L16.0338 12.5311L15.1438 11.1881H15.1428ZM9.02882 17.3371L10.9488 16.4101L9.29582 15.1231L9.02882 17.3371ZM13.0518 16.4101L14.9658 17.3371L14.7038 15.1231L13.0518 16.4101Z" fill="#E27625" stroke="#E27625" strokeWidth="0.3125" stroke-linecap="round" stroke-linejoin="round"/>
<path d="M14.9658 17.3381L13.0518 16.4111L13.2068 17.6541L13.1908 18.1811L14.9658 17.3381ZM9.02881 17.3381L10.8088 18.1811L10.7988 17.6541L10.9488 16.4111L9.02881 17.3381Z" fill="#D5BFB2" stroke="#D5BFB2" strokeWidth="0.3125" stroke-linecap="round" stroke-linejoin="round"/>
<path d="M10.843 14.3008L9.25098 13.8348L10.375 13.3188L10.843 14.3008ZM13.157 14.3008L13.625 13.3188L14.755 13.8348L13.157 14.3008Z" fill="#233447" stroke="#233447" strokeWidth="0.3125" stroke-linecap="round" stroke-linejoin="round"/>
<path d="M9.02911 17.3368L9.30711 15.0508L7.53711 15.1008L9.02911 17.3368ZM14.6931 15.0498L14.9661 17.3368L16.4621 15.1008L14.6931 15.0498ZM16.0341 12.5308L12.8621 12.6748L13.1571 14.3018L13.6241 13.3188L14.7541 13.8348L16.0341 12.5308ZM9.25111 13.8348L10.3751 13.3188L10.8421 14.3018L11.1371 12.6748L7.96611 12.5308L9.25111 13.8348Z" fill="#CC6228" stroke="#CC6228" strokeWidth="0.3125" stroke-linecap="round" stroke-linejoin="round"/>
<path d="M7.96582 12.5308L9.29582 15.1228L9.25082 13.8348L7.96582 12.5308ZM14.7538 13.8348L14.7038 15.1228L16.0338 12.5308L14.7538 13.8348ZM11.1378 12.6748L10.8428 14.3008L11.2158 16.2208L11.2988 13.6908L11.1378 12.6748ZM12.8618 12.6748L12.7058 13.6848L12.7838 16.2208L13.1568 14.3008L12.8618 12.6748Z" fill="#E27525" stroke="#E27525" strokeWidth="0.3125" stroke-linecap="round" stroke-linejoin="round"/>
<path d="M13.158 14.3019L12.785 16.2219L13.052 16.4109L14.704 15.1229L14.754 13.8359L13.158 14.3019ZM9.25098 13.8359L9.29598 15.1229L10.948 16.4109L11.216 16.2219L10.843 14.3019L9.25098 13.8359Z" fill="#F5841F" stroke="#F5841F" strokeWidth="0.3125" stroke-linecap="round" stroke-linejoin="round"/>
<path d="M13.1898 18.1809L13.2068 17.6539L13.0628 17.5319H10.9368L10.7978 17.6539L10.8088 18.1809L9.02881 17.3379L9.65181 17.8479L10.9148 18.7199H13.0788L14.3478 17.8479L14.9658 17.3379L13.1908 18.1809H13.1898Z" fill="#C0AC9D" stroke="#C0AC9D" strokeWidth="0.3125" stroke-linecap="round" stroke-linejoin="round"/>
<path d="M13.0518 16.4112L12.7848 16.2222H11.2158L10.9488 16.4122L10.7988 17.6542L10.9378 17.5322H13.0628L13.2078 17.6542L13.0518 16.4112Z" fill="#161616" stroke="#161616" strokeWidth="0.3125" stroke-linecap="round" stroke-linejoin="round"/>
<path d="M18.7268 9.8339L19.1998 7.5369L18.4878 5.3999L13.0518 9.4239L15.1438 11.1879L18.0978 12.0479L18.7488 11.2879L18.4658 11.0829L18.9158 10.6729L18.5708 10.4059L19.0218 10.0619L18.7268 9.8339ZM4.7998 7.5369L5.2788 9.8339L4.9728 10.0619L5.4288 10.4059L5.0838 10.6719L5.5338 11.0829L5.2508 11.2879L5.9008 12.0479L8.8558 11.1879L10.9478 9.4239L5.5118 5.3999L4.7998 7.5369Z" fill="#763E1A" stroke="#763E1A" strokeWidth="0.3125" stroke-linecap="round" stroke-linejoin="round"/>
<path d="M18.098 12.0489L15.143 11.1889L16.033 12.5319L14.703 15.1229L16.462 15.1009H19.088L18.098 12.0489ZM8.85599 11.1889L5.90199 12.0489L4.91699 15.1009H7.53699L9.29599 15.1229L7.96599 12.5319L8.85599 11.1889ZM12.862 12.6759L13.052 9.42386L13.908 7.10986H10.091L10.948 9.42386L11.138 12.6759L11.209 13.6969L11.215 16.2229H12.785L12.79 13.6969L12.862 12.6769V12.6759Z" fill="#F5841F" stroke="#F5841F" strokeWidth="0.3125" stroke-linecap="round" stroke-linejoin="round"/>
</g>
<defs>
<clipPath id="clip0_1685_6256">
<rect width="24" height="24" fill="white"/>
</clipPath>
</defs>
</svg>
